<?xml version="1.0" encoding="utf-8"?>
<!-- Generator: Adobe Illustrator 16.0.0, SVG Export Plug-In . SVG Version: 6.00 Build 0)  -->
<!DOCTYPE svg PUBLIC "-//W3C//DTD SVG 1.1//EN" "http://www.w3.org/Graphics/SVG/1.1/DTD/svg11.dtd">
<svg version="1.1" id="_x30_" xmlns:xml="http://www.w3.org/XML/1998/namespace"
	 xmlns="http://www.w3.org/2000/svg" xmlns:xlink="http://www.w3.org/1999/xlink" x="0px" y="0px" width="71.618px"
	 height="44.66px" viewBox="-6.718 -0.5 71.618 44.66" enable-background="new -6.718 -0.5 71.618 44.66" xml:space="preserve">
<desc  id="0.0.0" oldid="0.0">
	<referenceFile  id="0.0.0.0" oldid="0.0.0">Schematic.AD584.svg</referenceFile>
</desc>
<rect id="connector1terminal" x="0" y="7.128" fill="none" width="0.004" height="0.071"/>
<rect id="connector2terminal" x="0" y="14.396" fill="none" width="0.071" height="0.005"/>
<line id="connector3pin" fill="none" stroke="#000000" x1="64.899" y1="14.4" x2="50.494" y2="14.4"/>
<polygon id="connector3terminal" fill="none" points="64.802,14.396 64.895,14.396 64.895,14.4 64.895,14.4 "/>
<line id="connector4pin" fill="none" stroke="#000000" x1="50.494" y1="7.201" x2="64.895" y2="7.201"/>
<polygon id="connector4terminal" fill="none" points="64.802,7.054 64.808,7.054 64.895,7.201 64.802,7.201 "/>
<text id="_x30_.1.16" transform="matrix(0.8074 0 0 1 43.0447 24.0686)" font-family="'ArialMT'" font-size="4">SCL</text>
<text transform="matrix(0.8074 0 0 1 42.2947 16.9358)" font-family="'ArialMT'" font-size="4">GND</text>
<text id="_x30_.1.16_4_" transform="matrix(0.8074 0 0 1 42.2947 9.7356)" font-family="'ArialMT'" font-size="4">VCC</text>
<text id="_x30_.1.22" transform="matrix(0.9059 0 0 1 13.2366 23.6526)" font-family="'ArialMT'" font-size="4">BH1750</text>
<polygon fill="none" stroke="#000000" points="-6.218,0 50.494,0.003 50.494,43.66 -6.218,43.66 "/>
<line id="connector3pin_1_" fill="none" stroke="#000000" x1="64.897" y1="21.741" x2="50.492" y2="21.741"/>
<polygon id="connector3terminal_1_" fill="none" points="64.8,21.738 64.893,21.738 64.893,21.741 64.893,21.741 "/>
<polygon id="connector4terminal_1_" fill="none" points="64.8,14.396 64.806,14.396 64.893,14.543 64.8,14.543 "/>
<line id="connector3pin_3_" fill="none" stroke="#000000" x1="64.9" y1="28.833" x2="50.495" y2="28.833"/>
<polygon id="connector3terminal_3_" fill="none" points="64.802,28.829 64.896,28.829 64.896,28.833 64.896,28.833 "/>
<polygon id="connector4terminal_3_" fill="none" points="64.802,21.488 64.809,21.488 64.896,21.635 64.802,21.635 "/>
<line id="connector3pin_2_" fill="none" stroke="#000000" x1="64.898" y1="36.175" x2="50.493" y2="36.175"/>
<polygon id="connector3terminal_2_" fill="none" points="64.801,36.171 64.894,36.171 64.894,36.175 64.894,36.175 "/>
<polygon id="connector4terminal_2_" fill="none" points="64.801,28.829 64.807,28.829 64.894,28.977 64.801,28.977 "/>
<polygon id="connector3terminal_7_" fill="none" points="64.802,43.513 64.896,43.513 64.896,43.517 64.896,43.517 "/>
<polygon id="connector4terminal_7_" fill="none" points="64.802,36.171 64.809,36.171 64.896,36.319 64.802,36.319 "/>
<polygon id="connector4terminal_6_" fill="none" points="64.801,43.513 64.807,43.513 64.894,43.66 64.801,43.66 "/>
<text transform="matrix(0.8074 0 0 1 40.2947 38.6018)" font-family="'ArialMT'" font-size="4">ADDR</text>
<text id="_x30_.1.16_1_" transform="matrix(0.8074 0 0 1 42.7107 31.4026)" font-family="'ArialMT'" font-size="4">SDA</text>
</svg>
