<?xml version="1.0" encoding="utf-8"?>
<!-- Generator: Adobe Illustrator 16.0.0, SVG Export Plug-In . SVG Version: 6.00 Build 0)  -->
<!DOCTYPE svg PUBLIC "-//W3C//DTD SVG 1.1//EN" "http://www.w3.org/Graphics/SVG/1.1/DTD/svg11.dtd">
<svg version="1.1" id="Layer_1" xmlns="http://www.w3.org/2000/svg" xmlns:xlink="http://www.w3.org/1999/xlink" x="0px" y="0px"
	 width="67.108px" height="43.968px" viewBox="-42.413 -0.978 67.108 43.968" enable-background="new -42.413 -0.978 67.108 43.968"
	 xml:space="preserve">
<desc>Fritzing footprint generated by brd2svg</desc>
<g id="silkscreen">
	<path fill="none" stroke="#FFFFFF" stroke-width="0.576" d="M-42.125,42.702h66.457L24.406-0.69h-66.531V42.702"/>
	<g>
		<title>element:SL1</title>
		<g>
			<title>package:1X06</title>
			
				<line fill="none" stroke="#FFFFFF" stroke-width="0.576" stroke-linecap="round" x1="22.502" y1="26.021" x2="22.502" y2="29.621"/>
			
				<line fill="none" stroke="#FFFFFF" stroke-width="0.576" stroke-linecap="round" x1="22.502" y1="29.621" x2="20.703" y2="31.422"/>
			
				<line fill="none" stroke="#FFFFFF" stroke-width="0.576" stroke-linecap="round" x1="17.103" y1="31.422" x2="15.302" y2="29.621"/>
			
				<line fill="none" stroke="#FFFFFF" stroke-width="0.576" stroke-linecap="round" x1="20.703" y1="31.422" x2="22.502" y2="33.22"/>
			
				<line fill="none" stroke="#FFFFFF" stroke-width="0.576" stroke-linecap="round" x1="22.502" y1="33.22" x2="22.502" y2="36.82"/>
			
				<line fill="none" stroke="#FFFFFF" stroke-width="0.576" stroke-linecap="round" x1="22.502" y1="36.82" x2="20.703" y2="38.621"/>
			
				<line fill="none" stroke="#FFFFFF" stroke-width="0.576" stroke-linecap="round" x1="17.103" y1="38.621" x2="15.302" y2="36.82"/>
			
				<line fill="none" stroke="#FFFFFF" stroke-width="0.576" stroke-linecap="round" x1="15.302" y1="36.82" x2="15.302" y2="33.22"/>
			
				<line fill="none" stroke="#FFFFFF" stroke-width="0.576" stroke-linecap="round" x1="15.302" y1="33.22" x2="17.103" y2="31.422"/>
			
				<line fill="none" stroke="#FFFFFF" stroke-width="0.576" stroke-linecap="round" x1="20.703" y1="17.021" x2="22.502" y2="18.821"/>
			
				<line fill="none" stroke="#FFFFFF" stroke-width="0.576" stroke-linecap="round" x1="22.502" y1="18.821" x2="22.502" y2="22.421"/>
			
				<line fill="none" stroke="#FFFFFF" stroke-width="0.576" stroke-linecap="round" x1="22.502" y1="22.421" x2="20.703" y2="24.22"/>
			
				<line fill="none" stroke="#FFFFFF" stroke-width="0.576" stroke-linecap="round" x1="17.103" y1="24.22" x2="15.302" y2="22.421"/>
			
				<line fill="none" stroke="#FFFFFF" stroke-width="0.576" stroke-linecap="round" x1="15.302" y1="22.421" x2="15.302" y2="18.821"/>
			
				<line fill="none" stroke="#FFFFFF" stroke-width="0.576" stroke-linecap="round" x1="15.302" y1="18.821" x2="17.103" y2="17.021"/>
			
				<line fill="none" stroke="#FFFFFF" stroke-width="0.576" stroke-linecap="round" x1="22.502" y1="26.021" x2="20.703" y2="24.22"/>
			
				<line fill="none" stroke="#FFFFFF" stroke-width="0.576" stroke-linecap="round" x1="17.103" y1="24.22" x2="15.302" y2="26.021"/>
			
				<line fill="none" stroke="#FFFFFF" stroke-width="0.576" stroke-linecap="round" x1="15.302" y1="29.621" x2="15.302" y2="26.021"/>
			
				<line fill="none" stroke="#FFFFFF" stroke-width="0.576" stroke-linecap="round" x1="22.502" y1="4.421" x2="22.502" y2="8.021"/>
			
				<line fill="none" stroke="#FFFFFF" stroke-width="0.576" stroke-linecap="round" x1="22.502" y1="8.021" x2="20.703" y2="9.821"/>
			
				<line fill="none" stroke="#FFFFFF" stroke-width="0.576" stroke-linecap="round" x1="17.103" y1="9.821" x2="15.302" y2="8.021"/>
			
				<line fill="none" stroke="#FFFFFF" stroke-width="0.576" stroke-linecap="round" x1="20.703" y1="9.821" x2="22.502" y2="11.621"/>
			
				<line fill="none" stroke="#FFFFFF" stroke-width="0.576" stroke-linecap="round" x1="22.502" y1="11.621" x2="22.502" y2="15.221"/>
			
				<line fill="none" stroke="#FFFFFF" stroke-width="0.576" stroke-linecap="round" x1="22.502" y1="15.221" x2="20.703" y2="17.021"/>
			
				<line fill="none" stroke="#FFFFFF" stroke-width="0.576" stroke-linecap="round" x1="17.103" y1="17.021" x2="15.302" y2="15.221"/>
			
				<line fill="none" stroke="#FFFFFF" stroke-width="0.576" stroke-linecap="round" x1="15.302" y1="15.221" x2="15.302" y2="11.621"/>
			
				<line fill="none" stroke="#FFFFFF" stroke-width="0.576" stroke-linecap="round" x1="15.302" y1="11.621" x2="17.103" y2="9.821"/>
			
				<line fill="none" stroke="#FFFFFF" stroke-width="0.576" stroke-linecap="round" x1="20.703" y1="2.621" x2="17.103" y2="2.621"/>
			
				<line fill="none" stroke="#FFFFFF" stroke-width="0.576" stroke-linecap="round" x1="22.502" y1="4.421" x2="20.703" y2="2.621"/>
			
				<line fill="none" stroke="#FFFFFF" stroke-width="0.576" stroke-linecap="round" x1="17.103" y1="2.621" x2="15.302" y2="4.421"/>
			
				<line fill="none" stroke="#FFFFFF" stroke-width="0.576" stroke-linecap="round" x1="15.302" y1="8.021" x2="15.302" y2="4.421"/>
			
				<line fill="none" stroke="#FFFFFF" stroke-width="0.576" stroke-linecap="round" x1="20.703" y1="38.621" x2="17.103" y2="38.621"/>
		</g>
	</g>
	<g>
		<title>element:U$2</title>
		<g>
			<title>package:SFE-NEW-WEBLOGO</title>
		</g>
	</g>
	
		<rect x="-20.545" y="20.622" fill="none" stroke="#FFFFFF" stroke-width="0.576" stroke-linecap="round" width="17.083" height="14.399"/>
</g>
<g id="copper1">
	<g id="copper0">
		<circle id="connector8pad" fill="none" stroke="#F7BD13" stroke-width="1.224" cx="18.903" cy="6.222" r="2.052"/>
		<circle id="connector9pad" fill="none" stroke="#F7BD13" stroke-width="1.224" cx="18.903" cy="13.423" r="2.052"/>
		<circle id="connector10pad" fill="none" stroke="#F7BD13" stroke-width="1.224" cx="18.903" cy="20.622" r="2.052"/>
		<circle id="connector11pad" fill="none" stroke="#F7BD13" stroke-width="1.224" cx="18.903" cy="27.823" r="2.052"/>
		<circle id="connector12pad" fill="none" stroke="#F7BD13" stroke-width="1.224" cx="18.903" cy="35.022" r="2.052"/>
	</g>
</g>
<text transform="matrix(1 0 0 1 -30.3137 15.2209)" fill="#FFFFFF" font-family="'MyriadPro-Regular'" font-size="12">BH1750</text>
</svg>
