<?xml version="1.0" encoding="utf-8"?>
<!-- Generator: Adobe Illustrator 16.0.0, SVG Export Plug-In . SVG Version: 6.00 Build 0)  -->
<!DOCTYPE svg PUBLIC "-//W3C//DTD SVG 1.1//EN" "http://www.w3.org/Graphics/SVG/1.1/DTD/svg11.dtd">
<svg version="1.1" id="Layer_1" xmlns="http://www.w3.org/2000/svg" xmlns:xlink="http://www.w3.org/1999/xlink" x="0px" y="0px"
	 width="67.107px" height="58.339px" viewBox="29.054 -4.473 67.107 58.339" enable-background="new 29.054 -4.473 67.107 58.339"
	 xml:space="preserve">
<desc>Fritzing footprint generated by brd2svg</desc>
<g id="silkscreen">
	<path fill="none" stroke="#FFFFFF" stroke-width="0.576" d="M29.343,53.577H95.8l0.074-57.762H29.343V53.577"/>
	<g>
		<title>element:SL1</title>
		<g>
			<title>package:1X06</title>
			
				<line fill="none" stroke="#FFFFFF" stroke-width="0.576" stroke-linecap="round" x1="92.171" y1="35.126" x2="93.969" y2="36.927"/>
			
				<line fill="none" stroke="#FFFFFF" stroke-width="0.576" stroke-linecap="round" x1="93.969" y1="36.927" x2="93.969" y2="40.526"/>
			
				<line fill="none" stroke="#FFFFFF" stroke-width="0.576" stroke-linecap="round" x1="93.969" y1="40.526" x2="92.171" y2="42.325"/>
			
				<line fill="none" stroke="#FFFFFF" stroke-width="0.576" stroke-linecap="round" x1="88.571" y1="42.325" x2="86.77" y2="40.526"/>
			
				<line fill="none" stroke="#FFFFFF" stroke-width="0.576" stroke-linecap="round" x1="86.77" y1="40.526" x2="86.77" y2="36.927"/>
			
				<line fill="none" stroke="#FFFFFF" stroke-width="0.576" stroke-linecap="round" x1="86.77" y1="36.927" x2="88.571" y2="35.126"/>
			
				<line fill="none" stroke="#FFFFFF" stroke-width="0.576" stroke-linecap="round" x1="93.969" y1="22.526" x2="93.969" y2="26.126"/>
			
				<line fill="none" stroke="#FFFFFF" stroke-width="0.576" stroke-linecap="round" x1="93.969" y1="26.126" x2="92.171" y2="27.927"/>
			
				<line fill="none" stroke="#FFFFFF" stroke-width="0.576" stroke-linecap="round" x1="88.571" y1="27.927" x2="86.77" y2="26.126"/>
			
				<line fill="none" stroke="#FFFFFF" stroke-width="0.576" stroke-linecap="round" x1="92.171" y1="27.927" x2="93.969" y2="29.725"/>
			
				<line fill="none" stroke="#FFFFFF" stroke-width="0.576" stroke-linecap="round" x1="93.969" y1="29.725" x2="93.969" y2="33.325"/>
			
				<line fill="none" stroke="#FFFFFF" stroke-width="0.576" stroke-linecap="round" x1="93.969" y1="33.325" x2="92.171" y2="35.126"/>
			
				<line fill="none" stroke="#FFFFFF" stroke-width="0.576" stroke-linecap="round" x1="88.571" y1="35.126" x2="86.77" y2="33.325"/>
			
				<line fill="none" stroke="#FFFFFF" stroke-width="0.576" stroke-linecap="round" x1="86.77" y1="33.325" x2="86.77" y2="29.725"/>
			
				<line fill="none" stroke="#FFFFFF" stroke-width="0.576" stroke-linecap="round" x1="86.77" y1="29.725" x2="88.571" y2="27.927"/>
			
				<line fill="none" stroke="#FFFFFF" stroke-width="0.576" stroke-linecap="round" x1="92.171" y1="13.525" x2="93.969" y2="15.325"/>
			
				<line fill="none" stroke="#FFFFFF" stroke-width="0.576" stroke-linecap="round" x1="93.969" y1="15.325" x2="93.969" y2="18.926"/>
			
				<line fill="none" stroke="#FFFFFF" stroke-width="0.576" stroke-linecap="round" x1="93.969" y1="18.926" x2="92.171" y2="20.725"/>
			
				<line fill="none" stroke="#FFFFFF" stroke-width="0.576" stroke-linecap="round" x1="88.571" y1="20.725" x2="86.77" y2="18.926"/>
			
				<line fill="none" stroke="#FFFFFF" stroke-width="0.576" stroke-linecap="round" x1="86.77" y1="18.926" x2="86.77" y2="15.325"/>
			
				<line fill="none" stroke="#FFFFFF" stroke-width="0.576" stroke-linecap="round" x1="86.77" y1="15.325" x2="88.571" y2="13.525"/>
			
				<line fill="none" stroke="#FFFFFF" stroke-width="0.576" stroke-linecap="round" x1="93.969" y1="22.526" x2="92.171" y2="20.725"/>
			
				<line fill="none" stroke="#FFFFFF" stroke-width="0.576" stroke-linecap="round" x1="88.571" y1="20.725" x2="86.77" y2="22.526"/>
			
				<line fill="none" stroke="#FFFFFF" stroke-width="0.576" stroke-linecap="round" x1="86.77" y1="26.126" x2="86.77" y2="22.526"/>
			
				<line fill="none" stroke="#FFFFFF" stroke-width="0.576" stroke-linecap="round" x1="93.969" y1="0.926" x2="93.969" y2="4.525"/>
			
				<line fill="none" stroke="#FFFFFF" stroke-width="0.576" stroke-linecap="round" x1="93.969" y1="4.525" x2="92.171" y2="6.325"/>
			<line fill="none" stroke="#FFFFFF" stroke-width="0.576" stroke-linecap="round" x1="88.571" y1="6.325" x2="86.77" y2="4.525"/>
			
				<line fill="none" stroke="#FFFFFF" stroke-width="0.576" stroke-linecap="round" x1="92.171" y1="6.325" x2="93.969" y2="8.126"/>
			
				<line fill="none" stroke="#FFFFFF" stroke-width="0.576" stroke-linecap="round" x1="93.969" y1="8.126" x2="93.969" y2="11.725"/>
			
				<line fill="none" stroke="#FFFFFF" stroke-width="0.576" stroke-linecap="round" x1="93.969" y1="11.725" x2="92.171" y2="13.525"/>
			
				<line fill="none" stroke="#FFFFFF" stroke-width="0.576" stroke-linecap="round" x1="88.571" y1="13.525" x2="86.77" y2="11.725"/>
			<line fill="none" stroke="#FFFFFF" stroke-width="0.576" stroke-linecap="round" x1="86.77" y1="11.725" x2="86.77" y2="8.126"/>
			<line fill="none" stroke="#FFFFFF" stroke-width="0.576" stroke-linecap="round" x1="86.77" y1="8.126" x2="88.571" y2="6.325"/>
			
				<line fill="none" stroke="#FFFFFF" stroke-width="0.576" stroke-linecap="round" x1="92.171" y1="-0.874" x2="88.571" y2="-0.874"/>
			
				<line fill="none" stroke="#FFFFFF" stroke-width="0.576" stroke-linecap="round" x1="93.969" y1="0.926" x2="92.171" y2="-0.874"/>
			
				<line fill="none" stroke="#FFFFFF" stroke-width="0.576" stroke-linecap="round" x1="88.571" y1="-0.874" x2="86.77" y2="0.926"/>
			<line fill="none" stroke="#FFFFFF" stroke-width="0.576" stroke-linecap="round" x1="86.77" y1="4.525" x2="86.77" y2="0.926"/>
			
				<line fill="none" stroke="#FFFFFF" stroke-width="0.576" stroke-linecap="round" x1="92.171" y1="42.325" x2="88.571" y2="42.325"/>
		</g>
		<g>
			<title>element:SL1</title>
			<g>
				<title>package:1X06</title>
				
					<line fill="none" stroke="#FFFFFF" stroke-width="0.576" stroke-linecap="round" x1="92.171" y1="42.327" x2="93.97" y2="44.128"/>
				
					<line fill="none" stroke="#FFFFFF" stroke-width="0.576" stroke-linecap="round" x1="93.97" y1="44.128" x2="93.97" y2="47.727"/>
				
					<line fill="none" stroke="#FFFFFF" stroke-width="0.576" stroke-linecap="round" x1="93.97" y1="47.727" x2="92.171" y2="49.526"/>
				
					<line fill="none" stroke="#FFFFFF" stroke-width="0.576" stroke-linecap="round" x1="88.571" y1="49.526" x2="86.77" y2="47.727"/>
				
					<line fill="none" stroke="#FFFFFF" stroke-width="0.576" stroke-linecap="round" x1="86.77" y1="47.727" x2="86.77" y2="44.128"/>
				
					<line fill="none" stroke="#FFFFFF" stroke-width="0.576" stroke-linecap="round" x1="86.77" y1="44.128" x2="88.571" y2="42.327"/>
				
					<line fill="none" stroke="#FFFFFF" stroke-width="0.576" stroke-linecap="round" x1="93.97" y1="29.727" x2="93.97" y2="33.327"/>
				
					<line fill="none" stroke="#FFFFFF" stroke-width="0.576" stroke-linecap="round" x1="93.97" y1="33.327" x2="92.171" y2="35.128"/>
				
					<line fill="none" stroke="#FFFFFF" stroke-width="0.576" stroke-linecap="round" x1="88.571" y1="35.128" x2="86.77" y2="33.327"/>
				
					<line fill="none" stroke="#FFFFFF" stroke-width="0.576" stroke-linecap="round" x1="92.171" y1="35.128" x2="93.97" y2="36.927"/>
				
					<line fill="none" stroke="#FFFFFF" stroke-width="0.576" stroke-linecap="round" x1="93.97" y1="36.927" x2="93.97" y2="40.526"/>
				
					<line fill="none" stroke="#FFFFFF" stroke-width="0.576" stroke-linecap="round" x1="93.97" y1="40.526" x2="92.171" y2="42.327"/>
				
					<line fill="none" stroke="#FFFFFF" stroke-width="0.576" stroke-linecap="round" x1="88.571" y1="42.327" x2="86.77" y2="40.526"/>
				
					<line fill="none" stroke="#FFFFFF" stroke-width="0.576" stroke-linecap="round" x1="86.77" y1="40.526" x2="86.77" y2="36.927"/>
				
					<line fill="none" stroke="#FFFFFF" stroke-width="0.576" stroke-linecap="round" x1="86.77" y1="36.927" x2="88.571" y2="35.128"/>
				
					<line fill="none" stroke="#FFFFFF" stroke-width="0.576" stroke-linecap="round" x1="92.171" y1="20.727" x2="93.97" y2="22.526"/>
				
					<line fill="none" stroke="#FFFFFF" stroke-width="0.576" stroke-linecap="round" x1="93.97" y1="22.526" x2="93.97" y2="26.128"/>
				
					<line fill="none" stroke="#FFFFFF" stroke-width="0.576" stroke-linecap="round" x1="93.97" y1="26.128" x2="92.171" y2="27.927"/>
				
					<line fill="none" stroke="#FFFFFF" stroke-width="0.576" stroke-linecap="round" x1="88.571" y1="27.927" x2="86.77" y2="26.128"/>
				
					<line fill="none" stroke="#FFFFFF" stroke-width="0.576" stroke-linecap="round" x1="86.77" y1="26.128" x2="86.77" y2="22.526"/>
				
					<line fill="none" stroke="#FFFFFF" stroke-width="0.576" stroke-linecap="round" x1="86.77" y1="22.526" x2="88.571" y2="20.727"/>
				
					<line fill="none" stroke="#FFFFFF" stroke-width="0.576" stroke-linecap="round" x1="93.97" y1="29.727" x2="92.171" y2="27.927"/>
				
					<line fill="none" stroke="#FFFFFF" stroke-width="0.576" stroke-linecap="round" x1="88.571" y1="27.927" x2="86.77" y2="29.727"/>
				
					<line fill="none" stroke="#FFFFFF" stroke-width="0.576" stroke-linecap="round" x1="86.77" y1="33.327" x2="86.77" y2="29.727"/>
				
					<line fill="none" stroke="#FFFFFF" stroke-width="0.576" stroke-linecap="round" x1="93.97" y1="8.127" x2="93.97" y2="11.726"/>
				
					<line fill="none" stroke="#FFFFFF" stroke-width="0.576" stroke-linecap="round" x1="93.97" y1="11.726" x2="92.171" y2="13.526"/>
				
					<line fill="none" stroke="#FFFFFF" stroke-width="0.576" stroke-linecap="round" x1="88.571" y1="13.526" x2="86.77" y2="11.726"/>
				
					<line fill="none" stroke="#FFFFFF" stroke-width="0.576" stroke-linecap="round" x1="92.171" y1="13.526" x2="93.97" y2="15.327"/>
				
					<line fill="none" stroke="#FFFFFF" stroke-width="0.576" stroke-linecap="round" x1="93.97" y1="15.327" x2="93.97" y2="18.926"/>
				
					<line fill="none" stroke="#FFFFFF" stroke-width="0.576" stroke-linecap="round" x1="93.97" y1="18.926" x2="92.171" y2="20.727"/>
				
					<line fill="none" stroke="#FFFFFF" stroke-width="0.576" stroke-linecap="round" x1="88.571" y1="20.727" x2="86.77" y2="18.926"/>
				
					<line fill="none" stroke="#FFFFFF" stroke-width="0.576" stroke-linecap="round" x1="86.77" y1="18.926" x2="86.77" y2="15.327"/>
				
					<line fill="none" stroke="#FFFFFF" stroke-width="0.576" stroke-linecap="round" x1="86.77" y1="15.327" x2="88.571" y2="13.526"/>
				
					<line fill="none" stroke="#FFFFFF" stroke-width="0.576" stroke-linecap="round" x1="92.171" y1="6.327" x2="88.571" y2="6.327"/>
				
					<line fill="none" stroke="#FFFFFF" stroke-width="0.576" stroke-linecap="round" x1="93.97" y1="8.127" x2="92.171" y2="6.327"/>
				
					<line fill="none" stroke="#FFFFFF" stroke-width="0.576" stroke-linecap="round" x1="88.571" y1="6.327" x2="86.77" y2="8.127"/>
				
					<line fill="none" stroke="#FFFFFF" stroke-width="0.576" stroke-linecap="round" x1="86.77" y1="11.726" x2="86.77" y2="8.127"/>
				
					<line fill="none" stroke="#FFFFFF" stroke-width="0.576" stroke-linecap="round" x1="92.171" y1="49.526" x2="88.571" y2="49.526"/>
			</g>
		</g>
	</g>
	<g>
		<title>element:U$2</title>
		<g>
			<title>package:SFE-NEW-WEBLOGO</title>
		</g>
	</g>
	
		<rect x="50.923" y="17.127" fill="none" stroke="#FFFFFF" stroke-width="0.576" stroke-linecap="round" width="17.083" height="14.399"/>
	<circle fill="none" stroke="#FFFFFF" stroke-width="0.576" stroke-linecap="round" cx="59.465" cy="24.325" r="0.771"/>
</g>
<g id="copper1">
	<g id="copper0">
		<circle id="connector8pad" fill="none" stroke="#F7BD13" stroke-width="1.224" cx="90.371" cy="2.727" r="2.052"/>
		<circle id="connector9pad" fill="none" stroke="#F7BD13" stroke-width="1.224" cx="90.371" cy="9.927" r="2.052"/>
		<circle id="connector10pad" fill="none" stroke="#F7BD13" stroke-width="1.224" cx="90.371" cy="17.127" r="2.052"/>
		<circle id="connector11pad" fill="none" stroke="#F7BD13" stroke-width="1.224" cx="90.371" cy="24.327" r="2.052"/>
		<circle id="connector12pad" fill="none" stroke="#F7BD13" stroke-width="1.224" cx="90.371" cy="31.526" r="2.052"/>
		<circle id="connector13pad" fill="none" stroke="#F7BD13" stroke-width="1.224" cx="90.371" cy="38.727" r="2.052"/>
		<circle id="connector9pad_1_" fill="none" stroke="#F7BD13" stroke-width="1.224" cx="90.371" cy="45.927" r="2.052"/>
	</g>
</g>
<text transform="matrix(1 0 0 1 37.7371 10.2971)" fill="#FFFFFF" font-family="'MyriadPro-Regular'" font-size="12">BMP085</text>
</svg>
