<?xml version="1.0" encoding="utf-8"?>
<!-- Generator: Adobe Illustrator 16.0.0, SVG Export Plug-In . SVG Version: 6.00 Build 0)  -->
<!DOCTYPE svg PUBLIC "-//W3C//DTD SVG 1.1//EN" "http://www.w3.org/Graphics/SVG/1.1/DTD/svg11.dtd">
<svg version="1.1" id="Layer_1" xmlns="http://www.w3.org/2000/svg" xmlns:xlink="http://www.w3.org/1999/xlink" x="0px" y="0px"
	 width="60.312px" height="52.41px" viewBox="-27.638 -13.749 60.312 52.41" enable-background="new -27.638 -13.749 60.312 52.41"
	 xml:space="preserve">
<desc>Fritzing breadboard generated by brd2svg</desc>
<g id="breadboard">
	<g id="icon">
		<path fill="#006A99" d="M-27.638,38.661h60.312v-52.41h-60.312V38.661 M26.331,5.522c0-0.796,0.645-1.44,1.439-1.44
			c0.797,0,1.441,0.645,1.441,1.44s-0.645,1.441-1.441,1.441C26.976,6.963,26.331,6.318,26.331,5.522z M26.331-1.678
			c0-0.795,0.645-1.44,1.439-1.44c0.797,0,1.441,0.645,1.441,1.44l0,0c0,0.795-0.645,1.439-1.441,1.439
			C26.976-0.239,26.331-0.883,26.331-1.678z M26.331-8.878c0-0.795,0.645-1.44,1.439-1.44c0.797,0,1.441,0.645,1.441,1.44
			c0,0.795-0.645,1.44-1.441,1.44C26.976-7.438,26.331-8.083,26.331-8.878z M26.415,19.872c0-0.795,0.645-1.439,1.439-1.439
			s1.439,0.645,1.439,1.439c0,0.797-0.645,1.441-1.439,1.441S26.415,20.668,26.415,19.872z M26.415,12.67
			c0-0.795,0.645-1.439,1.439-1.439s1.439,0.645,1.439,1.439l0,0c0,0.795-0.645,1.439-1.439,1.439S26.415,13.465,26.415,12.67z
			 M26.499,34.272c0-0.795,0.645-1.439,1.439-1.439s1.439,0.645,1.439,1.439c0,0.797-0.645,1.441-1.439,1.441
			S26.499,35.069,26.499,34.272z M26.499,27.073c0-0.795,0.645-1.439,1.439-1.439s1.439,0.645,1.439,1.439l0,0
			c0,0.795-0.645,1.439-1.439,1.439S26.499,27.868,26.499,27.073z M-26.093-7.731c0-2.52,2.043-4.562,4.562-4.562
			c2.521,0,4.564,2.043,4.564,4.562c0,2.526-2.043,4.568-4.564,4.568C-24.05-3.163-26.093-5.205-26.093-7.731z M-26.595,32.856
			c0-2.52,2.043-4.562,4.563-4.562c2.521,0,4.564,2.043,4.564,4.562c0,2.525-2.043,4.568-4.564,4.568
			C-24.552,37.424-26.595,35.381-26.595,32.856z"/>
		<rect x="-4.307" y="-10.802" fill="#FFFFFF" fill-opacity="0.15" width="4.416" height="9.552"/>
		<rect x="-5.807" y="3.435" fill="#898989" width="20.121" height="17.897"/>
		<circle cx="4.253" cy="12.682" r="0.781"/>
		<rect x="7.972" y="-10.852" fill="#333333" width="4.676" height="9.602"/>
		<circle id="connector6pin" fill="none" stroke="#9A916C" stroke-width="1.224" cx="27.814" cy="-8.8" r="2.052"/>
		<circle id="connector6pin_1_" fill="none" stroke="#9A916C" stroke-width="1.224" cx="27.814" cy="-1.666" r="2.052"/>
		<circle id="connector6pin_2_" fill="none" stroke="#9A916C" stroke-width="1.224" cx="27.814" cy="5.487" r="2.052"/>
		<circle id="connector6pin_3_" fill="none" stroke="#9A916C" stroke-width="1.224" cx="27.814" cy="12.683" r="2.052"/>
		<circle id="connector6pin_4_" fill="none" stroke="#9A916C" stroke-width="1.224" cx="27.814" cy="19.884" r="2.052"/>
		<circle id="connector6pin_5_" fill="none" stroke="#9A916C" stroke-width="1.224" cx="27.814" cy="27.085" r="2.052"/>
		<circle id="connector6pin_6_" fill="none" stroke="#9A916C" stroke-width="1.224" cx="27.814" cy="34.291" r="2.052"/>
		<rect x="-4.307" y="24.93" fill="#FFFFFF" fill-opacity="0.15" width="4.416" height="9.551"/>
		<rect x="8.101" y="24.93" fill="#FFFFFF" fill-opacity="0.15" width="4.416" height="9.551"/>
		<rect x="-23.293" y="5.766" fill="#FFFFFF" fill-opacity="0.15" width="9.552" height="4.416"/>
		<rect x="-23.293" y="13.766" fill="#FFFFFF" fill-opacity="0.15" width="9.552" height="4.416"/>
	</g>
</g>
<text transform="matrix(1 0 0 1 15.7322 -7.499)" fill="#FFFFFF" font-family="'MyriadPro-Regular'" font-size="4.3433">GND</text>
<text transform="matrix(1 0 0 1 15.7322 -0.0825)" fill="#FFFFFF" font-family="'MyriadPro-Regular'" font-size="4.3433">+5V</text>
<text transform="matrix(1 0 0 1 15.7322 7.5391)" fill="#FFFFFF" font-family="'MyriadPro-Regular'" font-size="4.3433">SDA</text>
<text transform="matrix(1 0 0 1 15.7322 14.7344)" fill="#FFFFFF" font-family="'MyriadPro-Regular'" font-size="4.3433">SCL</text>
<text transform="matrix(1 0 0 1 15.7322 21.937)" fill="#FFFFFF" font-family="'MyriadPro-Regular'" font-size="4.3433">CLR</text>
<text transform="matrix(1 0 0 1 15.7322 29.1372)" fill="#FFFFFF" font-family="'MyriadPro-Regular'" font-size="4.3433">EOC</text>
<text transform="matrix(1 0 0 1 15.7322 36.3413)" fill="#FFFFFF" font-family="'MyriadPro-Regular'" font-size="4.3433">3V3</text>
</svg>
