<?xml version='1.0' encoding='UTF-8' standalone='no'?>
<!-- Created with Fritzing (http://www.fritzing.org/) -->
<svg xmlns:svg='http://www.w3.org/2000/svg' xmlns='http://www.w3.org/2000/svg' version='1.2' baseProfile='tiny' x='0in' y='0in' width='0.8in' height='0.33in' viewBox='0 0 57.6 23.76' >
<g partID='1029370'><g xmlns="http://www.w3.org/2000/svg" id="breadboard">
 <rect xmlns="http://www.w3.org/2000/svg" fill="#8C8C8C" x="2.52" y="18.949" width="2.16" height="4.811"/>
 <rect xmlns="http://www.w3.org/2000/svg" fill="#8C8C8C" x="9.72" y="18.949" width="2.16" height="4.811"/>
 <rect xmlns="http://www.w3.org/2000/svg" fill="#8C8C8C" x="16.92" y="18.949" width="2.159" height="4.811"/>
 <rect xmlns="http://www.w3.org/2000/svg" fill="#8C8C8C" x="24.119" y="18.949" width="2.16" height="4.811"/>
 <rect xmlns="http://www.w3.org/2000/svg" fill="#8C8C8C" x="31.319" y="18.949" width="2.16" height="4.811"/>
 <rect xmlns="http://www.w3.org/2000/svg" fill="#8C8C8C" x="38.521" y="18.949" width="2.159" height="4.811"/>
 <rect xmlns="http://www.w3.org/2000/svg" fill="#8C8C8C" x="45.719" y="18.949" width="2.16" height="4.811"/>
 <rect xmlns="http://www.w3.org/2000/svg" fill="#8C8C8C" x="52.919" y="18.949" width="2.16" height="4.811"/>
 <rect xmlns="http://www.w3.org/2000/svg" fill="#8C8C8C" x="52.919" y="0" width="2.16" height="4.81"/>
 <rect xmlns="http://www.w3.org/2000/svg" fill="#8C8C8C" x="45.719" y="0" width="2.16" height="4.81"/>
 <rect xmlns="http://www.w3.org/2000/svg" fill="#8C8C8C" x="38.521" y="0" width="2.159" height="4.81"/>
 <rect xmlns="http://www.w3.org/2000/svg" fill="#8C8C8C" x="31.319" y="0" width="2.16" height="4.81"/>
 <rect xmlns="http://www.w3.org/2000/svg" fill="#8C8C8C" x="24.119" y="0" width="2.16" height="4.81"/>
 <rect xmlns="http://www.w3.org/2000/svg" fill="#8C8C8C" x="16.92" y="0" width="2.159" height="4.81"/>
 <rect xmlns="http://www.w3.org/2000/svg" fill="#8C8C8C" x="9.72" y="0" width="2.16" height="4.81"/>
 <rect xmlns="http://www.w3.org/2000/svg" fill="#8C8C8C" x="2.52" y="0" width="2.16" height="4.81"/>
 <polygon xmlns="http://www.w3.org/2000/svg" fill="#3D3D3D" points="0,2.16,57.6,2.16,57.059,8.281,0,8.281"/>
 <polygon xmlns="http://www.w3.org/2000/svg" points="0,15.479,57.059,15.479,57.6,21.601,0,21.601"/>
 <polygon xmlns="http://www.w3.org/2000/svg" fill="#8C8C8C" points="6.12,3.125,6.12,2.347,4.68,1.685,2.52,1.685,2.52,3.125"/>
 <polygon xmlns="http://www.w3.org/2000/svg" fill="#8C8C8C" points="55.079,3.125,55.079,1.685,52.919,1.685,51.478,2.347,51.478,3.125"/>
 <polygon xmlns="http://www.w3.org/2000/svg" fill="#8C8C8C" points="2.52,20.636,2.52,22.074,4.68,22.074,6.12,21.412,6.12,20.636"/>
 <polygon xmlns="http://www.w3.org/2000/svg" fill="#8C8C8C" points="51.478,20.636,51.478,21.412,52.919,22.074,55.079,22.074,55.079,20.636"/>
 <polygon xmlns="http://www.w3.org/2000/svg" fill="#8C8C8C" points="13.32,3.125,13.32,2.347,11.88,1.685,9.72,1.685,8.28,2.347,8.28,3.125"/>
 <polygon xmlns="http://www.w3.org/2000/svg" fill="#8C8C8C" points="8.28,20.636,8.28,21.412,9.72,22.074,11.88,22.074,13.32,21.412,13.32,20.636"/>
 <polygon xmlns="http://www.w3.org/2000/svg" fill="#8C8C8C" points="20.52,3.125,20.52,2.347,19.079,1.685,16.92,1.685,15.48,2.347,15.48,3.125"/>
 <polygon xmlns="http://www.w3.org/2000/svg" fill="#8C8C8C" points="15.48,20.636,15.48,21.412,16.92,22.074,19.079,22.074,20.52,21.412,20.52,20.636"/>
 <polygon xmlns="http://www.w3.org/2000/svg" fill="#8C8C8C" points="27.72,3.125,27.72,2.347,26.28,1.685,24.119,1.685,22.68,2.347,22.68,3.125"/>
 <polygon xmlns="http://www.w3.org/2000/svg" fill="#8C8C8C" points="22.68,20.636,22.68,21.412,24.119,22.074,26.28,22.074,27.72,21.412,27.72,20.636"/>
 <polygon xmlns="http://www.w3.org/2000/svg" fill="#8C8C8C" points="34.919,3.125,34.919,2.347,33.479,1.685,31.319,1.685,29.879,2.347,29.879,3.125"/>
 <polygon xmlns="http://www.w3.org/2000/svg" fill="#8C8C8C" points="29.879,20.636,29.879,21.412,31.319,22.074,33.479,22.074,34.919,21.412,34.919,20.636"/>
 <polygon xmlns="http://www.w3.org/2000/svg" fill="#8C8C8C" points="42.119,3.125,42.119,2.347,40.68,1.685,38.521,1.685,37.079,2.347,37.079,3.125"/>
 <polygon xmlns="http://www.w3.org/2000/svg" fill="#8C8C8C" points="37.079,20.636,37.079,21.412,38.521,22.074,40.68,22.074,42.119,21.412,42.119,20.636"/>
 <polygon xmlns="http://www.w3.org/2000/svg" fill="#8C8C8C" points="49.319,3.125,49.319,2.347,47.879,1.685,45.719,1.685,44.28,2.347,44.28,3.125"/>
 <polygon xmlns="http://www.w3.org/2000/svg" fill="#8C8C8C" points="44.28,20.636,44.28,21.412,45.719,22.074,47.879,22.074,49.319,21.412,49.319,20.636"/>
 <polygon xmlns="http://www.w3.org/2000/svg" fill="#141414" points="57.6,2.16,57.059,3.931,56.053,3.931,56.053,19.821,57.059,19.828,57.6,21.601"/>
 <polygon xmlns="http://www.w3.org/2000/svg" fill="#1F1F1F" points="0,2.16,0.54,3.931,0.54,8.281,3.6,8.281,3.6,15.479,0.54,15.479,0.54,19.828,0,21.601"/>
 <polygon xmlns="http://www.w3.org/2000/svg" fill="#1C1C1C" points="3.6,8.281,0.54,8.281,0.403,9.792,0.403,11.88,3.6,11.88"/>
 <polygon xmlns="http://www.w3.org/2000/svg" fill="#383838" points="0.54,15.479,3.6,15.479,3.6,11.88,0.403,11.88,0.403,13.968"/>
 <path xmlns="http://www.w3.org/2000/svg" fill="#303030" d="M0.54,3.931l0,4.32c1.713,0.324,3.017,1.822,3.017,3.629s-1.296,3.313,-3.017,3.637l0,4.319l56.519,0L57.059,3.931L0.54,3.931z"/>
 <path xmlns="http://www.w3.org/2000/svg" fill="#262626" d="M0.403,9.792l0,4.196c1.059,-0.121,1.887,-1.008,1.887,-2.102C2.29,10.8,1.469,9.9,0.403,9.792z"/>
 <circle xmlns="http://www.w3.org/2000/svg" cx="4.68" r="1.483" fill="#212121" cy="16.898"/>
</g>
</g></svg>