<?xml version="1.0" encoding="utf-8"?>
<!-- Generator: Adobe Illustrator 16.0.0, SVG Export Plug-In . SVG Version: 6.00 Build 0)  -->
<!DOCTYPE svg PUBLIC "-//W3C//DTD SVG 1.1//EN" "http://www.w3.org/Graphics/SVG/1.1/DTD/svg11.dtd">
<svg version="1.1" id="Layer_1" xmlns="http://www.w3.org/2000/svg" xmlns:xlink="http://www.w3.org/1999/xlink" x="0px" y="0px"
	 width="114.167px" height="68.167px" viewBox="-72.677 -14.218 114.167 68.167"
	 enable-background="new -72.677 -14.218 114.167 68.167" xml:space="preserve">
<desc>Fritzing breadboard generated by brd2svg</desc>
<g id="breadboard">
	<g id="icon">
		<path fill="#006A99" d="M-72.677,53.949H41.49v-68.167H-72.677V53.949 M29.53,17.078c0-0.796,0.646-1.439,1.439-1.439
			c0.797,0,1.44,0.645,1.44,1.439s-0.645,1.441-1.44,1.441C30.176,18.52,29.53,17.874,29.53,17.078z M29.53,9.879
			c0-0.796,0.646-1.44,1.439-1.44c0.797,0,1.44,0.645,1.44,1.44l0,0c0,0.795-0.645,1.438-1.44,1.438
			C30.176,11.318,29.53,10.674,29.53,9.879z M29.53,2.679c0-0.795,0.646-1.44,1.439-1.44c0.797,0,1.44,0.646,1.44,1.44
			s-0.645,1.439-1.44,1.439C30.176,4.118,29.53,3.474,29.53,2.679z M29.614,31.429c0-0.795,0.646-1.439,1.439-1.439
			s1.438,0.646,1.438,1.439c0,0.797-0.645,1.44-1.438,1.44S29.614,32.225,29.614,31.429z M29.614,24.227
			c0-0.795,0.646-1.439,1.439-1.439s1.438,0.646,1.438,1.439l0,0c0,0.795-0.645,1.438-1.438,1.438S29.614,25.022,29.614,24.227z
			 M29.574,38.633c0-0.795,0.646-1.439,1.439-1.439s1.438,0.646,1.438,1.439c0,0.797-0.645,1.44-1.438,1.44
			S29.574,39.429,29.574,38.633z M38.171,4.197c-0.796,0-1.44-0.646-1.44-1.439c0-0.797,0.645-1.44,1.44-1.44l0,0
			c0.795,0,1.438,0.645,1.438,1.44C39.609,3.551,38.966,4.197,38.171,4.197z M36.701,16.971c0-0.796,0.646-1.439,1.439-1.439
			c0.797,0,1.44,0.645,1.44,1.439s-0.645,1.441-1.44,1.441C37.346,18.413,36.701,17.767,36.701,16.971z M36.701,9.772
			c0-0.796,0.646-1.44,1.439-1.44c0.797,0,1.44,0.645,1.44,1.44l0,0c0,0.795-0.645,1.438-1.44,1.438
			C37.346,11.211,36.701,10.567,36.701,9.772z M36.785,31.322c0-0.795,0.646-1.439,1.439-1.439s1.438,0.646,1.438,1.439
			c0,0.797-0.645,1.441-1.438,1.441S36.785,32.118,36.785,31.322z M36.785,24.12c0-0.795,0.646-1.439,1.439-1.439
			s1.438,0.645,1.438,1.439l0,0c0,0.795-0.645,1.438-1.438,1.438S36.785,24.915,36.785,24.12z M36.745,38.527
			c0-0.795,0.646-1.439,1.439-1.439s1.438,0.645,1.438,1.439c0,0.797-0.645,1.439-1.438,1.439S36.745,39.322,36.745,38.527z"/>
		<circle id="connector0pin" fill="none" stroke="#9A916C" stroke-width="1.224" cx="31.013" cy="2.757" r="2.052"/>
		<circle id="connector1pin" fill="none" stroke="#9A916C" stroke-width="1.224" cx="31.013" cy="38.65" r="2.053"/>
		<circle id="connector2pin" fill="none" stroke="#9A916C" stroke-width="1.224" cx="31.013" cy="9.891" r="2.052"/>
		<circle id="connector3pin" fill="none" stroke="#9A916C" stroke-width="1.224" cx="31.013" cy="17.044" r="2.052"/>
		<circle id="connector4pin" fill="none" stroke="#9A916C" stroke-width="1.224" cx="31.013" cy="24.24" r="2.052"/>
		<circle id="connector5pin" fill="none" stroke="#9A916C" stroke-width="1.224" cx="31.013" cy="31.441" r="2.052"/>
		<rect x="-5.48" y="33.353" fill="#FFFFFF" fill-opacity="0.15" width="2.886" height="7.707"/>
		<rect x="-6.924" y="-8.942" fill="#FFFFFF" fill-opacity="0.15" width="2.887" height="7.708"/>
		<rect x="-1.444" y="-8.942" fill="#FFFFFF" fill-opacity="0.15" width="2.887" height="7.708"/>
		<rect x="3.743" y="-8.942" fill="#FFFFFF" fill-opacity="0.15" width="2.887" height="7.708"/>
		<rect x="9.633" y="-8.942" fill="#FFFFFF" fill-opacity="0.15" width="2.887" height="7.708"/>
		<rect x="14.955" y="-8.942" fill="#FFFFFF" fill-opacity="0.15" width="2.887" height="7.708"/>
		<rect x="20.576" y="-8.909" fill="#FFFFFF" fill-opacity="0.15" width="2.887" height="7.708"/>
		<rect x="-5.48" y="4.809" fill="#333333" width="28.89" height="21.695"/>
		<rect x="-18" y="7.147" fill="#FFFFFF" fill-opacity="0.15" width="7.708" height="2.885"/>
		<rect x="-18" y="14.736" fill="#FFFFFF" fill-opacity="0.15" width="7.708" height="2.887"/>
		<rect x="-18" y="-0.13" fill="#FFFFFF" fill-opacity="0.15" width="7.708" height="2.887"/>
		<rect x="-18" y="-8.942" fill="#FFFFFF" fill-opacity="0.15" width="7.708" height="2.887"/>
		<rect x="-18" y="37.206" fill="#FFFFFF" fill-opacity="0.15" width="7.708" height="2.887"/>
		<rect x="-18" y="45.152" fill="#FFFFFF" fill-opacity="0.15" width="7.708" height="2.887"/>
		<rect x="-18" y="29.997" fill="#FFFFFF" fill-opacity="0.15" width="7.708" height="2.887"/>
		<rect x="-18" y="21.788" fill="#FFFFFF" fill-opacity="0.15" width="7.708" height="2.887"/>
		<text transform="matrix(1 0 0 1 -3.157 17.6223)" fill="#FFFFFF" font-family="'MyriadPro-Regular'" font-size="5.9438">ENC28J60</text>
		<circle id="connector6pin" fill="none" stroke="#9A916C" stroke-width="1.224" cx="38.177" cy="2.757" r="2.053"/>
		<circle id="connector7pin" fill="none" stroke="#9A916C" stroke-width="1.224" cx="38.177" cy="9.891" r="2.053"/>
		<circle id="connector8pin" fill="none" stroke="#9A916C" stroke-width="1.224" cx="38.177" cy="17.055" r="2.053"/>
		<circle id="connector9pin" fill="none" stroke="#9A916C" stroke-width="1.224" cx="38.177" cy="24.24" r="2.053"/>
		<circle id="connector10pin" fill="none" stroke="#9A916C" stroke-width="1.224" cx="38.177" cy="31.441" r="2.053"/>
		<circle id="connector11pin" fill="none" stroke="#9A916C" stroke-width="1.224" cx="38.177" cy="38.65" r="2.053"/>
		<rect x="23.463" y="33.352" fill="#FFFFFF" fill-opacity="0.15" width="2.887" height="7.708"/>
		<rect x="-1.444" y="46.119" fill="#FFFFFF" fill-opacity="0.15" width="7.708" height="2.887"/>
		<rect x="14.312" y="46.119" fill="#FFFFFF" fill-opacity="0.15" width="7.708" height="2.887"/>
	</g>
</g>
<text transform="matrix(1 0 0 1 30.1555 -10.2815)" fill="#FFFFFF" font-family="'MyriadPro-Regular'" font-size="2.8103">5v GND</text>
<g>
	<rect x="-72.677" y="-0.172" fill="#B7B7B7" width="53.75" height="40.204"/>
</g>
<text transform="matrix(1 0 0 1 30.1555 -6.4983)" fill="#FFFFFF" font-family="'MyriadPro-Regular'" font-size="2.8103">INT CLK</text>
<text transform="matrix(1 0 0 1 30.156 -2.7815)" fill="#FFFFFF" font-family="'MyriadPro-Regular'" font-size="2.8103">SO WOL</text>
<text transform="matrix(1 0 0 1 30.1555 45.1516)" fill="#FFFFFF" font-family="'MyriadPro-Regular'" font-size="2.8103">SCK    SI</text>
<text transform="matrix(1 0 0 1 30.156 49.0383)" fill="#FFFFFF" font-family="'MyriadPro-Regular'" font-size="2.8103">RST  CS</text>
<text transform="matrix(1 0 0 1 30.156 52.384)" fill="#FFFFFF" font-family="'MyriadPro-Regular'" font-size="2.8103">3.3   GND</text>
<path fill="#D8D8D8" d="M22.02,37.417c0,2.504-2.03,4.533-4.533,4.533H4.919c-2.503,0-4.533-2.029-4.533-4.533l0,0
	c0-2.504,2.03-4.533,4.533-4.533h12.568C19.99,32.884,22.02,34.913,22.02,37.417L22.02,37.417z"/>
</svg>
