<?xml version="1.0" encoding="utf-8"?>
<!-- Generator: Adobe Illustrator 16.0.0, SVG Export Plug-In . SVG Version: 6.00 Build 0)  -->
<!DOCTYPE svg PUBLIC "-//W3C//DTD SVG 1.1//EN" "http://www.w3.org/Graphics/SVG/1.1/DTD/svg11.dtd">
<svg version="1.1" id="_x30_" xmlns:xml="http://www.w3.org/XML/1998/namespace"
	 xmlns="http://www.w3.org/2000/svg" xmlns:xlink="http://www.w3.org/1999/xlink" x="0px" y="0px" width="85.282px"
	 height="49.278px" viewBox="-20.382 -0.5 85.282 49.278" enable-background="new -20.382 -0.5 85.282 49.278" xml:space="preserve"
	>
<desc  oldid="0.0" id="0.0.0">
	<referenceFile  oldid="0.0.0" id="0.0.0.0">Schematic.AD584.svg</referenceFile>
</desc>
<rect id="connector1terminal" y="7.128" fill="none" width="0.004" height="0.071"/>
<rect id="connector2terminal" y="14.396" fill="none" width="0.071" height="0.005"/>
<line id="connector1pin" fill="none" stroke="#000000" x1="64.899" y1="14.4" x2="50.495" y2="14.4"/>
<polygon id="connector3terminal" fill="none" points="64.801,14.396 64.895,14.396 64.895,14.4 64.895,14.4 "/>
<line id="connector2pin" fill="none" stroke="#000000" x1="50.495" y1="7.201" x2="64.895" y2="7.201"/>
<polygon id="connector4terminal" fill="none" points="64.801,7.054 64.808,7.054 64.895,7.201 64.801,7.201 "/>
<text id="_x30_.1.16" transform="matrix(0.8074 0 0 1 42.438 23.3188)" font-family="'ArialMT'" font-size="4">WOL</text>
<text transform="matrix(0.8074 0 0 1 43.0454 15.311)" font-family="'ArialMT'" font-size="4">CLK</text>
<text id="_x30_.1.16_4_" transform="matrix(0.8074 0 0 1 42.2954 8.2358)" font-family="'ArialMT'" font-size="4">GND</text>
<text id="_x30_.1.22" transform="matrix(0.9059 0 0 1 12.2788 18.9868)" font-family="'ArialMT'" font-size="4">ENC28J60</text>
<polygon fill="none" stroke="#000000" points="-6.218,0 50.495,0.003 50.495,48.151 -5.975,48.276 "/>
<line id="connector3pin" fill="none" stroke="#000000" x1="64.897" y1="21.741" x2="50.493" y2="21.741"/>
<polygon id="connector3terminal_1_" fill="none" points="64.799,21.738 64.893,21.738 64.893,21.741 64.893,21.741 "/>
<polygon id="connector4terminal_1_" fill="none" points="64.799,14.396 64.806,14.396 64.893,14.543 64.799,14.543 "/>
<line id="connector4pin" fill="none" stroke="#000000" x1="64.9" y1="28.833" x2="50.495" y2="28.833"/>
<polygon id="connector3terminal_3_" fill="none" points="64.801,28.829 64.896,28.829 64.896,28.833 64.896,28.833 "/>
<polygon id="connector4terminal_3_" fill="none" points="64.801,21.488 64.809,21.488 64.896,21.635 64.801,21.635 "/>
<line id="connector5pin" fill="none" stroke="#000000" x1="64.898" y1="36.174" x2="50.493" y2="36.174"/>
<polygon id="connector3terminal_2_" fill="none" points="64.801,36.17 64.894,36.17 64.894,36.174 64.894,36.174 "/>
<polygon id="connector4terminal_2_" fill="none" points="64.801,28.829 64.807,28.829 64.894,28.977 64.801,28.977 "/>
<line id="connector6pin" fill="none" stroke="#000000" x1="64.9" y1="43.517" x2="50.495" y2="43.517"/>
<polygon id="connector3terminal_7_" fill="none" points="64.801,43.513 64.896,43.513 64.896,43.517 64.896,43.517 "/>
<polygon id="connector4terminal_7_" fill="none" points="64.801,36.17 64.809,36.17 64.896,36.319 64.801,36.319 "/>
<polygon id="connector4terminal_6_" fill="none" points="64.801,43.513 64.807,43.513 64.894,43.661 64.801,43.661 "/>
<text id="_x30_.1.16_2_" transform="matrix(0.8074 0 0 1 42.438 44.7358)" font-family="'ArialMT'" font-size="4">GND</text>
<text transform="matrix(0.8074 0 0 1 44.9204 37.3521)" font-family="'ArialMT'" font-size="4">CS</text>
<text id="_x30_.1.16_1_" transform="matrix(0.8074 0 0 1 46.1704 30.4868)" font-family="'ArialMT'" font-size="4">SI</text>
<line id="connector7pin" fill="none" stroke="#000000" x1="-5.976" y1="14.253" x2="-20.38" y2="14.253"/>
<line id="connector8pin" fill="none" stroke="#000000" x1="-20.38" y1="7.054" x2="-5.98" y2="7.054"/>
<line id="connector9pin" fill="none" stroke="#000000" x1="-5.978" y1="21.594" x2="-20.382" y2="21.594"/>
<line id="connector10pin" fill="none" stroke="#000000" x1="-5.975" y1="28.686" x2="-20.38" y2="28.686"/>
<line id="connector11pin" fill="none" stroke="#000000" x1="-5.977" y1="36.028" x2="-20.382" y2="36.028"/>
<line id="connector12pin" fill="none" stroke="#000000" x1="-5.975" y1="43.37" x2="-20.38" y2="43.37"/>
<text id="_x30_.1.16_5_" transform="matrix(0.8074 0 0 1 -4.4375 8.2358)" font-family="'ArialMT'" font-size="4">5v</text>
<text id="_x30_.1.16_6_" transform="matrix(0.8074 0 0 1 -4.4375 15.311)" font-family="'ArialMT'" font-size="4">INT</text>
<text id="_x30_.1.16_7_" transform="matrix(0.8074 0 0 1 -4.4375 22.7358)" font-family="'ArialMT'" font-size="4">SO</text>
<text id="_x30_.1.16_8_" transform="matrix(0.8074 0 0 1 -4.4375 29.9858)" font-family="'ArialMT'" font-size="4">SCK</text>
<text id="_x30_.1.16_9_" transform="matrix(0.8074 0 0 1 -4.4375 37.3521)" font-family="'ArialMT'" font-size="4">RST</text>
<text id="_x30_.1.16_10_" transform="matrix(0.8074 0 0 1 -4.4375 44.7358)" font-family="'ArialMT'" font-size="4">3.3</text>
</svg>
