<?xml version="1.0" encoding="utf-8"?>
<!-- Generator: Adobe Illustrator 16.0.0, SVG Export Plug-In . SVG Version: 6.00 Build 0)  -->
<!DOCTYPE svg PUBLIC "-//W3C//DTD SVG 1.1//EN" "http://www.w3.org/Graphics/SVG/1.1/DTD/svg11.dtd">
<svg version="1.1" id="Layer_1" xmlns="http://www.w3.org/2000/svg" xmlns:xlink="http://www.w3.org/1999/xlink" x="0px" y="0px"
	 width="124.948px" height="79.076px" viewBox="-20.985 -12.537 124.948 79.076"
	 enable-background="new -20.985 -12.537 124.948 79.076" xml:space="preserve">
<desc>Fritzing footprint generated by brd2svg</desc>
<g id="silkscreen">
	<path fill="none" stroke="#FFFFFF" stroke-width="0.576" d="M-20.697,66.251h124.233l0.139-78.5H-20.697V66.251"/>
	<g>
		<title>element:SL1</title>
		<g>
			<title>package:1X06</title>
			
				<line fill="none" stroke="#FFFFFF" stroke-width="0.576" stroke-linecap="round" x1="92.171" y1="35.126" x2="93.969" y2="36.927"/>
			
				<line fill="none" stroke="#FFFFFF" stroke-width="0.576" stroke-linecap="round" x1="93.969" y1="36.927" x2="93.969" y2="40.526"/>
			
				<line fill="none" stroke="#FFFFFF" stroke-width="0.576" stroke-linecap="round" x1="93.969" y1="40.526" x2="92.171" y2="42.326"/>
			
				<line fill="none" stroke="#FFFFFF" stroke-width="0.576" stroke-linecap="round" x1="88.571" y1="42.326" x2="86.77" y2="40.526"/>
			
				<line fill="none" stroke="#FFFFFF" stroke-width="0.576" stroke-linecap="round" x1="86.77" y1="40.526" x2="86.77" y2="36.927"/>
			
				<line fill="none" stroke="#FFFFFF" stroke-width="0.576" stroke-linecap="round" x1="86.77" y1="36.927" x2="88.571" y2="35.126"/>
			
				<line fill="none" stroke="#FFFFFF" stroke-width="0.576" stroke-linecap="round" x1="93.969" y1="22.526" x2="93.969" y2="26.126"/>
			
				<line fill="none" stroke="#FFFFFF" stroke-width="0.576" stroke-linecap="round" x1="93.969" y1="26.126" x2="92.171" y2="27.927"/>
			
				<line fill="none" stroke="#FFFFFF" stroke-width="0.576" stroke-linecap="round" x1="88.571" y1="27.927" x2="86.77" y2="26.126"/>
			
				<line fill="none" stroke="#FFFFFF" stroke-width="0.576" stroke-linecap="round" x1="92.171" y1="27.927" x2="93.969" y2="29.725"/>
			
				<line fill="none" stroke="#FFFFFF" stroke-width="0.576" stroke-linecap="round" x1="93.969" y1="29.725" x2="93.969" y2="33.326"/>
			
				<line fill="none" stroke="#FFFFFF" stroke-width="0.576" stroke-linecap="round" x1="93.969" y1="33.326" x2="92.171" y2="35.126"/>
			
				<line fill="none" stroke="#FFFFFF" stroke-width="0.576" stroke-linecap="round" x1="88.571" y1="35.126" x2="86.77" y2="33.326"/>
			
				<line fill="none" stroke="#FFFFFF" stroke-width="0.576" stroke-linecap="round" x1="86.77" y1="33.326" x2="86.77" y2="29.725"/>
			
				<line fill="none" stroke="#FFFFFF" stroke-width="0.576" stroke-linecap="round" x1="86.77" y1="29.725" x2="88.571" y2="27.927"/>
			
				<line fill="none" stroke="#FFFFFF" stroke-width="0.576" stroke-linecap="round" x1="92.171" y1="13.525" x2="93.969" y2="15.325"/>
			
				<line fill="none" stroke="#FFFFFF" stroke-width="0.576" stroke-linecap="round" x1="93.969" y1="15.325" x2="93.969" y2="18.926"/>
			
				<line fill="none" stroke="#FFFFFF" stroke-width="0.576" stroke-linecap="round" x1="93.969" y1="18.926" x2="92.171" y2="20.725"/>
			
				<line fill="none" stroke="#FFFFFF" stroke-width="0.576" stroke-linecap="round" x1="88.571" y1="20.725" x2="86.77" y2="18.926"/>
			
				<line fill="none" stroke="#FFFFFF" stroke-width="0.576" stroke-linecap="round" x1="86.77" y1="18.926" x2="86.77" y2="15.325"/>
			
				<line fill="none" stroke="#FFFFFF" stroke-width="0.576" stroke-linecap="round" x1="86.77" y1="15.325" x2="88.571" y2="13.525"/>
			
				<line fill="none" stroke="#FFFFFF" stroke-width="0.576" stroke-linecap="round" x1="93.969" y1="22.526" x2="92.171" y2="20.725"/>
			
				<line fill="none" stroke="#FFFFFF" stroke-width="0.576" stroke-linecap="round" x1="88.571" y1="20.725" x2="86.77" y2="22.526"/>
			
				<line fill="none" stroke="#FFFFFF" stroke-width="0.576" stroke-linecap="round" x1="86.77" y1="26.126" x2="86.77" y2="22.526"/>
			
				<line fill="none" stroke="#FFFFFF" stroke-width="0.576" stroke-linecap="round" x1="92.171" y1="6.325" x2="93.969" y2="8.126"/>
			
				<line fill="none" stroke="#FFFFFF" stroke-width="0.576" stroke-linecap="round" x1="93.969" y1="8.126" x2="93.969" y2="11.725"/>
			
				<line fill="none" stroke="#FFFFFF" stroke-width="0.576" stroke-linecap="round" x1="93.969" y1="11.725" x2="92.171" y2="13.525"/>
			
				<line fill="none" stroke="#FFFFFF" stroke-width="0.576" stroke-linecap="round" x1="88.571" y1="13.525" x2="86.77" y2="11.725"/>
			<line fill="none" stroke="#FFFFFF" stroke-width="0.576" stroke-linecap="round" x1="86.77" y1="11.725" x2="86.77" y2="8.126"/>
			<line fill="none" stroke="#FFFFFF" stroke-width="0.576" stroke-linecap="round" x1="86.77" y1="8.126" x2="88.571" y2="6.325"/>
		</g>
		<g>
			<title>element:SL1</title>
			<g>
				<title>package:1X06</title>
				
					<line fill="none" stroke="#FFFFFF" stroke-width="0.576" stroke-linecap="round" x1="92.171" y1="42.328" x2="93.97" y2="44.128"/>
				
					<line fill="none" stroke="#FFFFFF" stroke-width="0.576" stroke-linecap="round" x1="93.97" y1="44.128" x2="93.97" y2="47.727"/>
				
					<line fill="none" stroke="#FFFFFF" stroke-width="0.576" stroke-linecap="round" x1="93.97" y1="47.727" x2="92.171" y2="49.526"/>
				
					<line fill="none" stroke="#FFFFFF" stroke-width="0.576" stroke-linecap="round" x1="88.571" y1="49.526" x2="86.77" y2="47.727"/>
				
					<line fill="none" stroke="#FFFFFF" stroke-width="0.576" stroke-linecap="round" x1="86.77" y1="47.727" x2="86.77" y2="44.128"/>
				
					<line fill="none" stroke="#FFFFFF" stroke-width="0.576" stroke-linecap="round" x1="86.77" y1="44.128" x2="88.571" y2="42.328"/>
				
					<line fill="none" stroke="#FFFFFF" stroke-width="0.576" stroke-linecap="round" x1="93.97" y1="29.727" x2="93.97" y2="33.328"/>
				
					<line fill="none" stroke="#FFFFFF" stroke-width="0.576" stroke-linecap="round" x1="93.97" y1="33.328" x2="92.171" y2="35.128"/>
				
					<line fill="none" stroke="#FFFFFF" stroke-width="0.576" stroke-linecap="round" x1="88.571" y1="35.128" x2="86.77" y2="33.328"/>
				
					<line fill="none" stroke="#FFFFFF" stroke-width="0.576" stroke-linecap="round" x1="92.171" y1="35.128" x2="93.97" y2="36.927"/>
				
					<line fill="none" stroke="#FFFFFF" stroke-width="0.576" stroke-linecap="round" x1="93.97" y1="36.927" x2="93.97" y2="40.526"/>
				
					<line fill="none" stroke="#FFFFFF" stroke-width="0.576" stroke-linecap="round" x1="93.97" y1="40.526" x2="92.171" y2="42.328"/>
				
					<line fill="none" stroke="#FFFFFF" stroke-width="0.576" stroke-linecap="round" x1="88.571" y1="42.328" x2="86.77" y2="40.526"/>
				
					<line fill="none" stroke="#FFFFFF" stroke-width="0.576" stroke-linecap="round" x1="86.77" y1="40.526" x2="86.77" y2="36.927"/>
				
					<line fill="none" stroke="#FFFFFF" stroke-width="0.576" stroke-linecap="round" x1="86.77" y1="36.927" x2="88.571" y2="35.128"/>
				
					<line fill="none" stroke="#FFFFFF" stroke-width="0.576" stroke-linecap="round" x1="92.171" y1="20.727" x2="93.97" y2="22.526"/>
				
					<line fill="none" stroke="#FFFFFF" stroke-width="0.576" stroke-linecap="round" x1="93.97" y1="22.526" x2="93.97" y2="26.128"/>
				
					<line fill="none" stroke="#FFFFFF" stroke-width="0.576" stroke-linecap="round" x1="93.97" y1="26.128" x2="92.171" y2="27.927"/>
				
					<line fill="none" stroke="#FFFFFF" stroke-width="0.576" stroke-linecap="round" x1="88.571" y1="27.927" x2="86.77" y2="26.128"/>
				
					<line fill="none" stroke="#FFFFFF" stroke-width="0.576" stroke-linecap="round" x1="86.77" y1="26.128" x2="86.77" y2="22.526"/>
				
					<line fill="none" stroke="#FFFFFF" stroke-width="0.576" stroke-linecap="round" x1="86.77" y1="22.526" x2="88.571" y2="20.727"/>
				
					<line fill="none" stroke="#FFFFFF" stroke-width="0.576" stroke-linecap="round" x1="93.97" y1="29.727" x2="92.171" y2="27.927"/>
				
					<line fill="none" stroke="#FFFFFF" stroke-width="0.576" stroke-linecap="round" x1="88.571" y1="27.927" x2="86.77" y2="29.727"/>
				
					<line fill="none" stroke="#FFFFFF" stroke-width="0.576" stroke-linecap="round" x1="86.77" y1="33.328" x2="86.77" y2="29.727"/>
				
					<line fill="none" stroke="#FFFFFF" stroke-width="0.576" stroke-linecap="round" x1="93.97" y1="8.127" x2="93.97" y2="11.726"/>
				
					<line fill="none" stroke="#FFFFFF" stroke-width="0.576" stroke-linecap="round" x1="93.97" y1="11.726" x2="92.171" y2="13.526"/>
				
					<line fill="none" stroke="#FFFFFF" stroke-width="0.576" stroke-linecap="round" x1="88.571" y1="13.526" x2="86.77" y2="11.726"/>
				
					<line fill="none" stroke="#FFFFFF" stroke-width="0.576" stroke-linecap="round" x1="92.171" y1="13.526" x2="93.97" y2="15.327"/>
				
					<line fill="none" stroke="#FFFFFF" stroke-width="0.576" stroke-linecap="round" x1="93.97" y1="15.327" x2="93.97" y2="18.926"/>
				
					<line fill="none" stroke="#FFFFFF" stroke-width="0.576" stroke-linecap="round" x1="93.97" y1="18.926" x2="92.171" y2="20.727"/>
				
					<line fill="none" stroke="#FFFFFF" stroke-width="0.576" stroke-linecap="round" x1="88.571" y1="20.727" x2="86.77" y2="18.926"/>
				
					<line fill="none" stroke="#FFFFFF" stroke-width="0.576" stroke-linecap="round" x1="86.77" y1="18.926" x2="86.77" y2="15.327"/>
				
					<line fill="none" stroke="#FFFFFF" stroke-width="0.576" stroke-linecap="round" x1="86.77" y1="15.327" x2="88.571" y2="13.526"/>
				
					<line fill="none" stroke="#FFFFFF" stroke-width="0.576" stroke-linecap="round" x1="92.171" y1="6.327" x2="88.571" y2="6.327"/>
				
					<line fill="none" stroke="#FFFFFF" stroke-width="0.576" stroke-linecap="round" x1="93.97" y1="8.127" x2="92.171" y2="6.327"/>
				
					<line fill="none" stroke="#FFFFFF" stroke-width="0.576" stroke-linecap="round" x1="88.571" y1="6.327" x2="86.77" y2="8.127"/>
				
					<line fill="none" stroke="#FFFFFF" stroke-width="0.576" stroke-linecap="round" x1="86.77" y1="11.726" x2="86.77" y2="8.127"/>
				
					<line fill="none" stroke="#FFFFFF" stroke-width="0.576" stroke-linecap="round" x1="92.171" y1="49.526" x2="88.571" y2="49.526"/>
			</g>
		</g>
		<g>
			<title>element:SL1</title>
			<g>
				<title>package:1X06</title>
				
					<line fill="none" stroke="#FFFFFF" stroke-width="0.576" stroke-linecap="round" x1="99.281" y1="42.328" x2="101.081" y2="44.128"/>
				
					<line fill="none" stroke="#FFFFFF" stroke-width="0.576" stroke-linecap="round" x1="101.081" y1="44.128" x2="101.081" y2="47.728"/>
				
					<line fill="none" stroke="#FFFFFF" stroke-width="0.576" stroke-linecap="round" x1="101.081" y1="47.728" x2="99.281" y2="49.527"/>
				
					<line fill="none" stroke="#FFFFFF" stroke-width="0.576" stroke-linecap="round" x1="95.681" y1="49.527" x2="93.881" y2="47.728"/>
				
					<line fill="none" stroke="#FFFFFF" stroke-width="0.576" stroke-linecap="round" x1="93.881" y1="47.728" x2="93.881" y2="44.128"/>
				
					<line fill="none" stroke="#FFFFFF" stroke-width="0.576" stroke-linecap="round" x1="93.881" y1="44.128" x2="95.681" y2="42.328"/>
				
					<line fill="none" stroke="#FFFFFF" stroke-width="0.576" stroke-linecap="round" x1="101.081" y1="29.728" x2="101.081" y2="33.328"/>
				
					<line fill="none" stroke="#FFFFFF" stroke-width="0.576" stroke-linecap="round" x1="101.081" y1="33.328" x2="99.281" y2="35.128"/>
				
					<line fill="none" stroke="#FFFFFF" stroke-width="0.576" stroke-linecap="round" x1="95.681" y1="35.128" x2="93.881" y2="33.328"/>
				
					<line fill="none" stroke="#FFFFFF" stroke-width="0.576" stroke-linecap="round" x1="99.281" y1="35.128" x2="101.081" y2="36.927"/>
				
					<line fill="none" stroke="#FFFFFF" stroke-width="0.576" stroke-linecap="round" x1="101.081" y1="36.927" x2="101.081" y2="40.527"/>
				
					<line fill="none" stroke="#FFFFFF" stroke-width="0.576" stroke-linecap="round" x1="101.081" y1="40.527" x2="99.281" y2="42.328"/>
				
					<line fill="none" stroke="#FFFFFF" stroke-width="0.576" stroke-linecap="round" x1="95.681" y1="42.328" x2="93.881" y2="40.527"/>
				
					<line fill="none" stroke="#FFFFFF" stroke-width="0.576" stroke-linecap="round" x1="93.881" y1="40.527" x2="93.881" y2="36.927"/>
				
					<line fill="none" stroke="#FFFFFF" stroke-width="0.576" stroke-linecap="round" x1="93.881" y1="36.927" x2="95.681" y2="35.128"/>
				
					<line fill="none" stroke="#FFFFFF" stroke-width="0.576" stroke-linecap="round" x1="99.281" y1="20.728" x2="101.081" y2="22.526"/>
				
					<line fill="none" stroke="#FFFFFF" stroke-width="0.576" stroke-linecap="round" x1="101.081" y1="22.526" x2="101.081" y2="26.128"/>
				
					<line fill="none" stroke="#FFFFFF" stroke-width="0.576" stroke-linecap="round" x1="101.081" y1="26.128" x2="99.281" y2="27.927"/>
				
					<line fill="none" stroke="#FFFFFF" stroke-width="0.576" stroke-linecap="round" x1="95.681" y1="27.927" x2="93.881" y2="26.128"/>
				
					<line fill="none" stroke="#FFFFFF" stroke-width="0.576" stroke-linecap="round" x1="93.881" y1="26.128" x2="93.881" y2="22.526"/>
				
					<line fill="none" stroke="#FFFFFF" stroke-width="0.576" stroke-linecap="round" x1="93.881" y1="22.526" x2="95.681" y2="20.728"/>
				
					<line fill="none" stroke="#FFFFFF" stroke-width="0.576" stroke-linecap="round" x1="101.081" y1="29.728" x2="99.281" y2="27.927"/>
				
					<line fill="none" stroke="#FFFFFF" stroke-width="0.576" stroke-linecap="round" x1="95.681" y1="27.927" x2="93.881" y2="29.728"/>
				
					<line fill="none" stroke="#FFFFFF" stroke-width="0.576" stroke-linecap="round" x1="93.881" y1="33.328" x2="93.881" y2="29.728"/>
				
					<line fill="none" stroke="#FFFFFF" stroke-width="0.576" stroke-linecap="round" x1="101.081" y1="8.127" x2="101.081" y2="11.727"/>
				
					<line fill="none" stroke="#FFFFFF" stroke-width="0.576" stroke-linecap="round" x1="101.081" y1="11.727" x2="99.281" y2="13.526"/>
				
					<line fill="none" stroke="#FFFFFF" stroke-width="0.576" stroke-linecap="round" x1="95.681" y1="13.526" x2="93.881" y2="11.727"/>
				
					<line fill="none" stroke="#FFFFFF" stroke-width="0.576" stroke-linecap="round" x1="99.281" y1="13.526" x2="101.081" y2="15.328"/>
				
					<line fill="none" stroke="#FFFFFF" stroke-width="0.576" stroke-linecap="round" x1="101.081" y1="15.328" x2="101.081" y2="18.926"/>
				
					<line fill="none" stroke="#FFFFFF" stroke-width="0.576" stroke-linecap="round" x1="101.081" y1="18.926" x2="99.281" y2="20.728"/>
				
					<line fill="none" stroke="#FFFFFF" stroke-width="0.576" stroke-linecap="round" x1="95.681" y1="20.728" x2="93.881" y2="18.926"/>
				
					<line fill="none" stroke="#FFFFFF" stroke-width="0.576" stroke-linecap="round" x1="93.881" y1="18.926" x2="93.881" y2="15.328"/>
				
					<line fill="none" stroke="#FFFFFF" stroke-width="0.576" stroke-linecap="round" x1="93.881" y1="15.328" x2="95.681" y2="13.526"/>
				
					<line fill="none" stroke="#FFFFFF" stroke-width="0.576" stroke-linecap="round" x1="99.281" y1="6.328" x2="95.681" y2="6.328"/>
				
					<line fill="none" stroke="#FFFFFF" stroke-width="0.576" stroke-linecap="round" x1="101.081" y1="8.127" x2="99.281" y2="6.328"/>
				
					<line fill="none" stroke="#FFFFFF" stroke-width="0.576" stroke-linecap="round" x1="95.681" y1="6.328" x2="93.881" y2="8.127"/>
				
					<line fill="none" stroke="#FFFFFF" stroke-width="0.576" stroke-linecap="round" x1="93.881" y1="11.727" x2="93.881" y2="8.127"/>
				
					<line fill="none" stroke="#FFFFFF" stroke-width="0.576" stroke-linecap="round" x1="99.281" y1="49.527" x2="95.681" y2="49.527"/>
			</g>
		</g>
	</g>
	<g>
		<title>element:U$2</title>
		<g>
			<title>package:SFE-NEW-WEBLOGO</title>
		</g>
	</g>
	<circle fill="none" stroke="#FFFFFF" stroke-width="0.576" stroke-linecap="round" cx="59.465" cy="24.325" r="0.771"/>
</g>
<g id="copper1">
	<g id="copper0">
		<circle id="connector09pad" fill="none" stroke="#F7BD13" stroke-width="1.224" cx="90.371" cy="9.927" r="2.052"/>
		<circle id="connector10pad" fill="none" stroke="#F7BD13" stroke-width="1.224" cx="90.371" cy="17.127" r="2.052"/>
		<circle id="connector11pad" fill="none" stroke="#F7BD13" stroke-width="1.224" cx="90.371" cy="24.327" r="2.052"/>
		<circle id="connector12pad" fill="none" stroke="#F7BD13" stroke-width="1.224" cx="90.371" cy="31.526" r="2.052"/>
		<circle id="connector13pad" fill="none" stroke="#F7BD13" stroke-width="1.224" cx="90.371" cy="38.727" r="2.052"/>
		<circle id="connector14pad" fill="none" stroke="#F7BD13" stroke-width="1.224" cx="90.371" cy="45.927" r="2.052"/>
		<circle id="connector15pad" fill="none" stroke="#F7BD13" stroke-width="1.224" cx="97.481" cy="9.927" r="2.052"/>
		<circle id="connector16pad" fill="none" stroke="#F7BD13" stroke-width="1.224" cx="97.481" cy="17.127" r="2.052"/>
		<circle id="connector17pad" fill="none" stroke="#F7BD13" stroke-width="1.224" cx="97.481" cy="24.327" r="2.052"/>
		<circle id="connector18pad" fill="none" stroke="#F7BD13" stroke-width="1.224" cx="97.481" cy="31.526" r="2.052"/>
		<circle id="connector19pad" fill="none" stroke="#F7BD13" stroke-width="1.224" cx="97.481" cy="38.727" r="2.052"/>
		<circle id="connector20pad" fill="none" stroke="#F7BD13" stroke-width="1.224" cx="97.481" cy="45.927" r="2.052"/>
	</g>
</g>
<text transform="matrix(1 0 0 1 13.6121 33.5776)" fill="#FFFFFF" font-family="'MyriadPro-Regular'" font-size="12">ENC28J60</text>
</svg>
