<?xml version="1.0" encoding="utf-8"?>
<!-- Generator: Adobe Illustrator 16.0.0, SVG Export Plug-In . SVG Version: 6.00 Build 0)  -->
<!DOCTYPE svg PUBLIC "-//W3C//DTD SVG 1.1//EN" "http://www.w3.org/Graphics/SVG/1.1/DTD/svg11.dtd">
<svg version="1.1" id="Layer_1" xmlns="http://www.w3.org/2000/svg" xmlns:xlink="http://www.w3.org/1999/xlink" x="0px" y="0px"
	 width="21.018px" height="63.5px" viewBox="0 0 21.018 63.5" enable-background="new 0 0 21.018 63.5" xml:space="preserve">
<g id="copper1_1_">
	<g id="copper0_1_">
		<rect x="3.31" y="21.167" fill="none" stroke="#CCCCCC" stroke-width="1.224" width="0" height="42.333"/>
		<rect x="3.775" y="58.667" fill="none" stroke="#CCCCCC" stroke-width="1.224" width="0" height="4.833"/>
		<rect x="10.942" y="58.667" fill="none" stroke="#CCCCCC" stroke-width="1.224" width="0" height="4.833"/>
		<rect x="18.004" y="58.667" fill="none" stroke="#CCCCCC" stroke-width="1.224" width="0" height="4.833"/>
		<rect x="10.509" y="21.167" fill="none" stroke="#CCCCCC" stroke-width="1.224" width="0" height="42.333"/>
		<rect x="17.709" y="21.167" fill="none" stroke="#CCCCCC" stroke-width="1.224" width="0" height="42.333"/>
	</g>
</g>
<rect x="0.583" fill="#CCCCCC" width="19.851" height="21.667"/>
<circle fill="#020202" cx="10.509" cy="9.2" r="7.2"/>
<rect x="1.946" y="8.617" transform="matrix(0.7064 0.7079 -0.7079 0.7064 9.5984 -4.7367)" fill="#CCCCCC" width="17.125" height="1.166"/>
<rect x="1.946" y="8.617" transform="matrix(-0.7071 0.7071 -0.7071 -0.7071 24.4436 8.2751)" fill="#CCCCCC" width="17.125" height="1.166"/>
<rect x="19.851" y="17.471" fill="#CCCCCC" width="1.166" height="4.197"/>
<rect x="0" y="17.471" fill="#CCCCCC" width="1.166" height="4.197"/>
<rect x="3.465" y="21.667" fill="#CCCCCC" width="1.166" height="2.098"/>
<rect x="16.386" y="21.667" fill="#CCCCCC" width="1.166" height="2.098"/>
<rect x="9.342" y="21.667" fill="#CCCCCC" width="1.166" height="2.098"/>
<rect x="10.51" y="21.667" fill="#CCCCCC" width="1.166" height="2.098"/>
</svg>
