<?xml version="1.0" encoding="utf-8"?>
<!-- Generator: Adobe Illustrator 16.0.0, SVG Export Plug-In . SVG Version: 6.00 Build 0)  -->
<!DOCTYPE svg PUBLIC "-//W3C//DTD SVG 1.1//EN" "http://www.w3.org/Graphics/SVG/1.1/DTD/svg11.dtd">
<svg version="1.1" id="Layer_1" xmlns="http://www.w3.org/2000/svg" xmlns:xlink="http://www.w3.org/1999/xlink" x="0px" y="0px"
	 width="95.188px" height="47.25px" viewBox="-27.638 -21.633 95.188 47.25" enable-background="new -27.638 -21.633 95.188 47.25"
	 xml:space="preserve">
<desc>Fritzing breadboard generated by brd2svg</desc>
<g id="breadboard">
	<g id="icon">
		<path fill="#025610" d="M-27.638,25.617H67.55v-47.25h-95.188V25.617 M61.515,5.946c0-0.796,0.645-1.44,1.439-1.44
			c0.797,0,1.441,0.645,1.441,1.44s-0.645,1.441-1.441,1.441C62.159,7.387,61.515,6.742,61.515,5.946z M61.515-1.254
			c0-0.795,0.645-1.44,1.439-1.44c0.797,0,1.441,0.645,1.441,1.44l0,0c0,0.795-0.645,1.439-1.441,1.439
			C62.159,0.185,61.515-0.459,61.515-1.254z M61.599,20.296c0-0.795,0.645-1.439,1.439-1.439s1.439,0.645,1.439,1.439
			c0,0.797-0.645,1.441-1.439,1.441S61.599,21.093,61.599,20.296z M61.599,13.094c0-0.795,0.645-1.439,1.439-1.439
			s1.439,0.645,1.439,1.439l0,0c0,0.795-0.645,1.439-1.439,1.439S61.599,13.889,61.599,13.094z M55.863,21.654
			c-0.795,0-1.439-0.645-1.439-1.439s0.645-1.439,1.439-1.439l0,0c0.795,0,1.439,0.645,1.439,1.439S56.657,21.654,55.863,21.654z
			 M54.29,5.945c0-0.796,0.645-1.44,1.439-1.44c0.797,0,1.441,0.645,1.441,1.44s-0.645,1.441-1.441,1.441
			C54.935,7.387,54.29,6.741,54.29,5.945z M54.29-1.255c0-0.795,0.645-1.44,1.439-1.44c0.797,0,1.441,0.645,1.441,1.44l0,0
			c0,0.795-0.645,1.439-1.441,1.439C54.935,0.185,54.29-0.46,54.29-1.255z M54.374,13.094c0-0.795,0.645-1.439,1.439-1.439
			s1.439,0.645,1.439,1.439l0,0c0,0.795-0.645,1.439-1.439,1.439S54.374,13.889,54.374,13.094z"/>
		<rect x="7.853" y="-19.613" fill="#A0A0A0" width="38.863" height="8.346"/>
		<circle id="connector6pin_1_" fill="none" stroke="#9A916C" stroke-width="1.224" cx="63.101" cy="-1.395" r="2.052"/>
		<circle id="connector6pin_2_" fill="none" stroke="#9A916C" stroke-width="1.224" cx="63.101" cy="5.758" r="2.052"/>
		<circle id="connector6pin_3_" fill="none" stroke="#9A916C" stroke-width="1.224" cx="63.101" cy="12.953" r="2.052"/>
		<circle id="connector6pin_4_" fill="none" stroke="#9A916C" stroke-width="1.224" cx="63.101" cy="20.155" r="2.052"/>
		<rect x="31.68" y="16.3" fill="#FFFFFF" fill-opacity="0.15" width="2.886" height="7.709"/>
		<rect x="36.395" y="16.3" fill="#FFFFFF" fill-opacity="0.15" width="2.886" height="7.709"/>
		<rect x="41.14" y="16.3" fill="#FFFFFF" fill-opacity="0.15" width="2.886" height="7.709"/>
		<rect x="46.077" y="16.3" fill="#FFFFFF" fill-opacity="0.15" width="2.886" height="7.709"/>
		<rect x="25.87" y="-5.157" fill="#FFFFFF" fill-opacity="0.15" width="7.707" height="2.886"/>
		<rect x="25.869" y="0.657" fill="#333333" width="13.607" height="11.983"/>
		<rect x="-1.337" y="-3.566" fill="#FFFFFF" fill-opacity="0.15" width="7.708" height="2.885"/>
		<rect x="-1.337" y="-8.504" fill="#FFFFFF" fill-opacity="0.15" width="7.708" height="2.886"/>
		<circle id="connector6pin_8_" fill="none" stroke="#9A916C" stroke-width="1.224" cx="55.745" cy="-1.395" r="2.052"/>
		<circle id="connector6pin_7_" fill="none" stroke="#9A916C" stroke-width="1.224" cx="55.745" cy="5.758" r="2.052"/>
		<circle id="connector6pin_6_" fill="none" stroke="#9A916C" stroke-width="1.224" cx="55.745" cy="12.953" r="2.052"/>
		<circle id="connector6pin_5_" fill="none" stroke="#9A916C" stroke-width="1.224" cx="55.745" cy="20.155" r="2.052"/>
		<rect x="-1.337" y="-19.254" fill="#FFFFFF" fill-opacity="0.15" width="7.708" height="2.886"/>
		<rect x="-1.337" y="11.198" fill="#FFFFFF" fill-opacity="0.15" width="7.708" height="2.885"/>
		<rect x="-1.337" y="1.163" fill="#FFFFFF" fill-opacity="0.15" width="7.708" height="2.886"/>
		<rect x="9.16" y="6.648" fill="#FFFFFF" fill-opacity="0.15" width="2.885" height="7.708"/>
		<rect x="9.159" y="-3.197" fill="#FFFFFF" fill-opacity="0.15" width="2.886" height="7.708"/>
		<rect x="14.096" y="1.502" fill="#FFFFFF" fill-opacity="0.15" width="2.887" height="7.708"/>
		<rect x="53.453" y="-14.153" fill="#FFFFFF" fill-opacity="0.15" width="7.707" height="2.886"/>
	</g>
</g>
<text transform="matrix(1 0 0 1 46.3508 12.9541)" fill="#FFFFFF" font-family="'MyriadPro-Regular'" font-size="2.9438">CE</text>
<text transform="matrix(1 0 0 1 46.3508 20.1558)" fill="#FFFFFF" font-family="'MyriadPro-Regular'" font-size="2.9438">GND</text>
<text transform="matrix(1 0 0 1 46.3508 6.0337)" fill="#FFFFFF" font-family="'MyriadPro-Regular'" font-size="2.9438">SCK</text>
<text transform="matrix(1 0 0 1 46.3508 -0.3408)" fill="#FFFFFF" font-family="'MyriadPro-Regular'" font-size="2.9438">MISO</text>
<text transform="matrix(1 0 0 1 38.2961 20.1558)" fill="#FFFFFF" font-family="'MyriadPro-Regular'" font-size="2.9438">VCC</text>
<text transform="matrix(1 0 0 1 38.2961 12.9414)" fill="#FFFFFF" font-family="'MyriadPro-Regular'" font-size="2.9438">CSN</text>
<text transform="matrix(1 0 0 1 38.2961 5.7588)" fill="#FFFFFF" font-family="'MyriadPro-Regular'" font-size="2.9438">MOSI</text>
<text transform="matrix(1 0 0 1 38.2961 -0.3408)" fill="#FFFFFF" font-family="'MyriadPro-Regular'" font-size="2.9438">IRQ</text>
<line fill="none" stroke="#7A7838" x1="-24.7" y1="0.954" x2="-8.783" y2="0.954"/>
<line fill="none" stroke="#7A7838" x1="-24.7" y1="12.954" x2="-1.95" y2="12.954"/>
<line fill="none" stroke="#7A7838" x1="-24.7" y1="6.954" x2="-8.784" y2="6.954"/>
<line fill="none" stroke="#7A7838" x1="-24.699" y1="-16.837" x2="-8.783" y2="-16.837"/>
<line fill="none" stroke="#7A7838" x1="-24.699" y1="-4.837" x2="-8.783" y2="-4.837"/>
<line fill="none" stroke="#7A7838" x1="-24.699" y1="-10.837" x2="-8.783" y2="-10.837"/>
<line fill="none" stroke="#7A7838" x1="-24.2" y1="-16.837" x2="-24.2" y2="-10.823"/>
<line fill="none" stroke="#7A7838" x1="-9.262" y1="-10.867" x2="-9.262" y2="-4.841"/>
<line fill="none" stroke="#7A7838" x1="-24.2" y1="-4.837" x2="-24.2" y2="1.177"/>
<line fill="none" stroke="#7A7838" x1="-24.2" y1="6.954" x2="-24.2" y2="12.969"/>
<line fill="none" stroke="#7A7838" x1="-9.262" y1="1.036" x2="-9.262" y2="7.062"/>
<line fill="none" stroke="#7A7838" x1="-5.575" y1="-20.1" x2="-5.575" y2="13.51"/>
</svg>
